<mxfile host="65bd71144e">
    <diagram id="Tr5X2FpRF7VwYhVk3_f8" name="Page-1">
        <mxGraphModel dx="967" dy="569" grid="1" gridSize="10" guides="1" tooltips="1" connect="1" arrows="1" fold="1" page="1" pageScale="1" pageWidth="827" pageHeight="1169" math="0" shadow="0">
            <root>
                <mxCell id="0"/>
                <mxCell id="1" parent="0"/>
                <mxCell id="5" value="" style="edgeStyle=none;html=1;" edge="1" parent="1" source="2" target="4">
                    <mxGeometry relative="1" as="geometry"/>
                </mxCell>
                <mxCell id="2" value="HTML" style="html=1;shadow=0;dashed=0;shape=mxgraph.bootstrap.rrect;rSize=5;strokeColor=none;strokeWidth=1;fillColor=#0085FC;fontColor=#FFFFFF;whiteSpace=wrap;align=left;verticalAlign=middle;spacingLeft=0;fontStyle=1;fontSize=14;spacing=5;" vertex="1" parent="1">
                    <mxGeometry x="240" y="240" width="60" height="20" as="geometry"/>
                </mxCell>
                <mxCell id="7" value="" style="edgeStyle=none;html=1;" edge="1" parent="1" source="3" target="6">
                    <mxGeometry relative="1" as="geometry"/>
                </mxCell>
                <mxCell id="3" value="CSS" style="html=1;shadow=0;dashed=0;shape=mxgraph.bootstrap.rrect;rSize=5;strokeColor=none;strokeWidth=1;fillColor=#33A64C;fontColor=#FFFFFF;whiteSpace=wrap;align=left;verticalAlign=middle;spacingLeft=0;fontStyle=1;fontSize=14;spacing=5;" vertex="1" parent="1">
                    <mxGeometry x="240" y="330" width="65" height="20" as="geometry"/>
                </mxCell>
                <mxCell id="10" value="" style="edgeStyle=none;html=1;entryX=0;entryY=0.5;entryDx=0;entryDy=0;" edge="1" parent="1" source="4" target="12">
                    <mxGeometry relative="1" as="geometry">
                        <mxPoint x="566.3829787234042" y="287.23404255319144" as="targetPoint"/>
                    </mxGeometry>
                </mxCell>
                <mxCell id="4" value="DOM树" style="whiteSpace=wrap;html=1;fontSize=14;align=left;fillColor=#0085FC;strokeColor=none;fontColor=#FFFFFF;shadow=0;dashed=0;strokeWidth=1;spacingLeft=0;fontStyle=1;spacing=5;" vertex="1" parent="1">
                    <mxGeometry x="350" y="220" width="120" height="60" as="geometry"/>
                </mxCell>
                <mxCell id="14" style="edgeStyle=none;html=1;exitX=1;exitY=0.5;exitDx=0;exitDy=0;entryX=0;entryY=0.5;entryDx=0;entryDy=0;" edge="1" parent="1" source="6" target="12">
                    <mxGeometry relative="1" as="geometry"/>
                </mxCell>
                <mxCell id="6" value="CSS结构体" style="whiteSpace=wrap;html=1;fontSize=14;align=left;fillColor=#33A64C;strokeColor=none;fontColor=#FFFFFF;shadow=0;dashed=0;strokeWidth=1;spacingLeft=0;fontStyle=1;spacing=5;" vertex="1" parent="1">
                    <mxGeometry x="350" y="310" width="120" height="60" as="geometry"/>
                </mxCell>
                <mxCell id="16" value="" style="edgeStyle=none;html=1;" edge="1" parent="1" source="12" target="15">
                    <mxGeometry relative="1" as="geometry"/>
                </mxCell>
                <mxCell id="12" value="Render Tree" style="shape=hexagon;perimeter=hexagonPerimeter2;whiteSpace=wrap;html=1;fixedSize=1;fontSize=14;align=left;fillColor=#FFBC26;strokeColor=none;fontColor=#000000;shadow=0;dashed=0;strokeWidth=1;spacingLeft=0;fontStyle=1;spacing=5;" vertex="1" parent="1">
                    <mxGeometry x="550" y="260" width="120" height="80" as="geometry"/>
                </mxCell>
                <mxCell id="18" value="" style="edgeStyle=none;html=1;" edge="1" parent="1" source="15" target="17">
                    <mxGeometry relative="1" as="geometry"/>
                </mxCell>
                <mxCell id="25" style="edgeStyle=none;html=1;exitX=0.5;exitY=1;exitDx=0;exitDy=0;entryX=0.5;entryY=0;entryDx=0;entryDy=0;" edge="1" parent="1" source="15" target="23">
                    <mxGeometry relative="1" as="geometry"/>
                </mxCell>
                <mxCell id="15" value="计算布局信息" style="whiteSpace=wrap;html=1;fontSize=14;align=left;fillColor=#FFBC26;strokeColor=none;fontColor=#000000;shadow=0;dashed=0;strokeWidth=1;spacingLeft=0;fontStyle=1;spacing=5;" vertex="1" parent="1">
                    <mxGeometry x="730" y="270" width="120" height="60" as="geometry"/>
                </mxCell>
                <mxCell id="20" value="" style="edgeStyle=none;html=1;" edge="1" parent="1" source="17" target="19">
                    <mxGeometry relative="1" as="geometry"/>
                </mxCell>
                <mxCell id="26" style="edgeStyle=none;html=1;exitX=0.5;exitY=1;exitDx=0;exitDy=0;entryX=0.5;entryY=0;entryDx=0;entryDy=0;" edge="1" parent="1" source="17" target="24">
                    <mxGeometry relative="1" as="geometry"/>
                </mxCell>
                <mxCell id="17" value="UI引擎渲染" style="rounded=1;whiteSpace=wrap;html=1;fontSize=14;align=left;fillColor=#FFBC26;strokeColor=none;fontColor=#000000;shadow=0;dashed=0;strokeWidth=1;spacingLeft=0;fontStyle=1;spacing=5;" vertex="1" parent="1">
                    <mxGeometry x="910" y="270" width="120" height="60" as="geometry"/>
                </mxCell>
                <mxCell id="19" value="&amp;nbsp; &amp;nbsp; &amp;nbsp;用户所见页面" style="rhombus;whiteSpace=wrap;html=1;fontSize=14;align=left;fillColor=#FFBC26;strokeColor=none;fontColor=#000000;rounded=1;shadow=0;dashed=0;strokeWidth=1;spacingLeft=0;fontStyle=1;spacing=5;" vertex="1" parent="1">
                    <mxGeometry x="1100" y="260" width="140" height="90" as="geometry"/>
                </mxCell>
                <mxCell id="23" value="回流" style="whiteSpace=wrap;html=1;fontSize=14;align=left;fillColor=#33A64C;strokeColor=none;fontColor=#FFFFFF;shadow=0;dashed=0;strokeWidth=1;spacingLeft=0;fontStyle=1;spacing=5;" vertex="1" parent="1">
                    <mxGeometry x="730" y="400" width="120" height="60" as="geometry"/>
                </mxCell>
                <mxCell id="24" value="重绘" style="whiteSpace=wrap;html=1;fontSize=14;align=left;fillColor=#33A64C;strokeColor=none;fontColor=#FFFFFF;shadow=0;dashed=0;strokeWidth=1;spacingLeft=0;fontStyle=1;spacing=5;" vertex="1" parent="1">
                    <mxGeometry x="910" y="400" width="120" height="60" as="geometry"/>
                </mxCell>
            </root>
        </mxGraphModel>
    </diagram>
</mxfile>
